<?xml version="1.0" encoding="UTF-8"?>
<!DOCTYPE svg PUBLIC "-//W3C//DTD SVG 1.1//EN" "http://www.w3.org/Graphics/SVG/1.1/DTD/svg11.dtd">
<svg xmlns="http://www.w3.org/2000/svg" version="1.1" width="710px" height="120px" style="shape-rendering:geometricPrecision; text-rendering:geometricPrecision; image-rendering:optimizeQuality; fill-rule:evenodd; clip-rule:evenodd" xmlns:xlink="http://www.w3.org/1999/xlink">
<g><path style="opacity:0.973" fill="#fff" d="M 31.5,3.5 C 50.8362,3.33338 70.1695,3.50005 89.5,4C 95.3518,5.3565 100.352,8.18983 104.5,12.5C 105.919,10.6641 107.086,8.6641 108,6.5C 108.903,5.29857 110.069,4.46524 111.5,4C 132.833,3.33333 154.167,3.33333 175.5,4C 191.603,9.3526 198.103,20.5193 195,37.5C 190.018,59.1484 176.851,72.9818 155.5,79C 146.209,80.1498 136.876,80.8165 127.5,81C 122.09,82.7425 118.256,86.2425 116,91.5C 115.08,98.6977 113.413,105.698 111,112.5C 107.319,115.36 103.152,116.193 98.5,115C 76.5,104 54.5,93 32.5,82C 27.8958,80.9393 23.2291,80.2727 18.5,80C 12.5325,77.7344 9.53248,73.4011 9.5,67C 12.063,50.4556 14.8963,33.9556 18,17.5C 20.0166,10.3185 24.5166,5.65179 31.5,3.5 Z M 41.5,27.5 C 55.504,27.3334 69.504,27.5001 83.5,28C 86.2505,29.0848 87.9172,31.0848 88.5,34C 85.7309,46.4354 78.0643,53.7688 65.5,56C 56.1667,56.6667 46.8333,56.6667 37.5,56C 36.6919,55.6924 36.0253,55.1924 35.5,54.5C 37.1824,45.3948 39.1824,36.3948 41.5,27.5 Z M 122.5,27.5 C 136.837,27.3334 151.171,27.5001 165.5,28C 168.068,29.1271 169.402,31.1271 169.5,34C 166.487,47.3444 158.154,54.6777 144.5,56C 135.833,56.6667 127.167,56.6667 118.5,56C 118.46,46.3947 119.793,36.8947 122.5,27.5 Z M 89.5,77.5 C 90.8333,77.5 92.1667,77.5 93.5,77.5C 93.7182,81.315 92.7182,84.6484 90.5,87.5C 86.7991,85.9884 83.4658,83.9884 80.5,81.5C 83.3783,79.9217 86.3783,78.5884 89.5,77.5 Z"/></g>
<g><path style="opacity:0.849" fill="#fff" d="M 615.5,9.5 C 621,8.83142 623.167,11.1647 622,16.5C 620.5,18 619,19.5 617.5,21C 611.333,22.8333 609.167,20.6667 611,14.5C 612.707,12.9625 614.207,11.2959 615.5,9.5 Z"/></g>
<g><path style="opacity:0.919" fill="#fff" d="M 230.5,24.5 C 240.506,24.3335 250.506,24.5002 260.5,25C 268.173,27.8421 271.006,33.3421 269,41.5C 268.275,43.9494 267.275,46.2827 266,48.5C 263.357,49.9763 261.19,51.9763 259.5,54.5C 262.34,59.7984 263.34,65.2984 262.5,71C 259.5,71.6667 256.5,71.6667 253.5,71C 251.539,66.2845 249.872,61.4512 248.5,56.5C 246.636,55.0069 244.47,54.3403 242,54.5C 239.648,54.3049 237.648,54.9716 236,56.5C 234.955,61.3991 233.788,66.2325 232.5,71C 229.24,71.7835 226.073,71.6168 223,70.5C 224.525,55.0139 227.025,39.6805 230.5,24.5 Z M 240.5,33.5 C 245.511,33.3341 250.511,33.5007 255.5,34C 258.851,36.7932 259.018,39.9599 256,43.5C 255.25,44.1258 254.416,44.6258 253.5,45C 248.511,45.4993 243.511,45.6659 238.5,45.5C 238.191,41.2953 238.857,37.2953 240.5,33.5 Z"/></g>
<g><path style="opacity:0.914" fill="#fff" d="M 277.5,24.5 C 289.414,24.1785 301.247,24.5118 313,25.5C 313.769,28.0991 313.602,30.5991 312.5,33C 304.167,33.3333 295.833,33.6667 287.5,34C 285.686,36.4815 285.02,39.3148 285.5,42.5C 292.175,42.3337 298.842,42.5004 305.5,43C 308.113,45.7953 308.113,48.6286 305.5,51.5C 298.216,52.2998 290.883,52.7998 283.5,53C 281.115,56.1152 281.115,59.1152 283.5,62C 291.167,62.3333 298.833,62.6667 306.5,63C 308.013,65.9156 307.68,68.5823 305.5,71C 293.833,71.6667 282.167,71.6667 270.5,71C 270,70.5 269.5,70 269,69.5C 270.87,54.3172 273.703,39.3172 277.5,24.5 Z"/></g>
<g><path style="opacity:0.927" fill="#fff" d="M 320.5,24.5 C 328.84,24.3336 337.173,24.5003 345.5,25C 351.501,26.3356 355.668,29.8356 358,35.5C 360.655,47.8597 357.489,58.3597 348.5,67C 345.382,68.893 342.049,70.2264 338.5,71C 329.921,71.8157 321.421,71.649 313,70.5C 314.095,54.9329 316.595,39.5996 320.5,24.5 Z M 330.5,33.5 C 334.936,33.2101 339.27,33.7101 343.5,35C 346.18,37.3627 347.513,40.3627 347.5,44C 346.9,57.606 339.9,63.606 326.5,62C 325.643,61.3109 324.977,60.4776 324.5,59.5C 326.318,51.574 327.818,43.574 329,35.5C 329.717,34.9558 330.217,34.2891 330.5,33.5 Z"/></g>
<g><path style="opacity:0.913" fill="#fff" d="M 368.5,24.5 C 380.747,24.1782 392.914,24.5115 405,25.5C 405.944,28.3471 405.444,30.8471 403.5,33C 394.922,33.182 386.422,33.682 378,34.5C 376.881,37.0571 376.715,39.5571 377.5,42C 384.606,42.0737 391.606,42.7403 398.5,44C 399.725,46.6293 399.392,49.1293 397.5,51.5C 389.444,51.8183 381.611,52.8183 374,54.5C 373.231,57.0991 373.398,59.5991 374.5,62C 382.521,62.1684 390.521,62.6684 398.5,63.5C 399.58,66.1262 399.246,68.6262 397.5,71C 385.258,71.8211 373.091,71.6544 361,70.5C 362.525,55.0384 365.025,39.705 368.5,24.5 Z"/></g>
<g><path style="opacity:0.921" fill="#fff" d="M 424.5,24.5 C 433.839,24.3335 443.173,24.5002 452.5,25C 461.293,29.3683 463.793,36.2017 460,45.5C 457.673,50.4232 453.84,53.5899 448.5,55C 442.5,55.3333 436.5,55.6667 430.5,56C 428.739,60.67 427.239,65.5034 426,70.5C 423.263,71.6105 420.429,71.7772 417.5,71C 416.833,70 416.167,69 415.5,68C 418.128,53.3946 421.128,38.8946 424.5,24.5 Z M 434.5,33.5 C 439.297,33.1211 443.964,33.6211 448.5,35C 450.996,39.837 449.663,43.5037 444.5,46C 431.684,49.0672 428.351,44.9005 434.5,33.5 Z"/></g>
<g><path style="opacity:0.915" fill="#fff" d="M 476.5,24.5 C 480.767,24.203 484.934,24.5363 489,25.5C 492.611,39.0541 495.778,52.7208 498.5,66.5C 496.213,71.7969 492.713,72.7969 488,69.5C 487.205,67.0988 486.038,64.9321 484.5,63C 478.833,62.3333 473.167,62.3333 467.5,63C 465.257,65.4878 463.257,68.1544 461.5,71C 455.143,72.4806 452.643,69.9806 454,63.5C 461.512,50.4726 469.012,37.4726 476.5,24.5 Z M 480.5,36.5 C 482.138,41.4994 483.471,46.6661 484.5,52C 480.703,53.4239 476.703,53.9239 472.5,53.5C 474.874,47.7497 477.54,42.0831 480.5,36.5 Z"/></g>
<g><path style="opacity:0.919" fill="#fff" d="M 510.5,24.5 C 520.506,24.3335 530.506,24.5002 540.5,25C 548.173,27.8421 551.006,33.3421 549,41.5C 548.275,43.9494 547.275,46.2827 546,48.5C 543.357,49.9763 541.19,51.9763 539.5,54.5C 542.34,59.7984 543.34,65.2984 542.5,71C 539.5,71.6667 536.5,71.6667 533.5,71C 531.539,66.2845 529.872,61.4512 528.5,56.5C 526.636,55.0069 524.47,54.3403 522,54.5C 519.648,54.3049 517.648,54.9716 516,56.5C 514.955,61.3991 513.788,66.2325 512.5,71C 509.24,71.7835 506.073,71.6168 503,70.5C 504.525,55.0139 507.025,39.6805 510.5,24.5 Z M 520.5,33.5 C 525.511,33.3341 530.511,33.5007 535.5,34C 538.851,36.7932 539.018,39.9599 536,43.5C 535.25,44.1258 534.416,44.6258 533.5,45C 528.511,45.4993 523.511,45.6659 518.5,45.5C 518.191,41.2953 518.857,37.2953 520.5,33.5 Z"/></g>
<g><path style="opacity:0.915" fill="#fff" d="M 572.5,24.5 C 576.514,24.3345 580.514,24.5012 584.5,25C 585.126,25.7504 585.626,26.5838 586,27.5C 589.321,41.104 591.988,54.7707 594,68.5C 591.833,71.2868 588.999,72.1201 585.5,71C 584.019,68.2377 582.353,65.571 580.5,63C 574.833,62.3333 569.167,62.3333 563.5,63C 561.257,65.4878 559.257,68.1544 557.5,71C 551.833,72.3277 549.333,70.1611 550,64.5C 557.259,50.9775 564.759,37.6442 572.5,24.5 Z M 576.5,36.5 C 578.144,41.2944 579.477,46.2944 580.5,51.5C 580.291,52.086 579.957,52.586 579.5,53C 575.638,53.9133 571.972,53.5799 568.5,52C 571.307,46.885 573.974,41.7183 576.5,36.5 Z"/></g>
<g><path style="opacity:0.913" fill="#fff" d="M 607.5,24.5 C 610.187,24.3359 612.854,24.5026 615.5,25C 616.357,25.6891 617.023,26.5224 617.5,27.5C 614.787,41.1126 612.287,54.7793 610,68.5C 609.057,70.9544 607.224,71.9544 604.5,71.5C 601.447,72.0482 599.447,70.8815 598.5,68C 601.128,53.3946 604.128,38.8946 607.5,24.5 Z"/></g>
<g><path style="opacity:0.929" fill="#fff" d="M 624.5,24.5 C 634.506,24.3335 644.506,24.5002 654.5,25C 662.879,29.0911 664.712,35.2578 660,43.5C 658.421,45.0412 656.587,46.2078 654.5,47C 662.113,53.5623 662.446,60.5623 655.5,68C 653.283,69.2754 650.949,70.2754 648.5,71C 637.923,71.8191 627.423,71.6524 617,70.5C 618.525,55.0358 621.025,39.7025 624.5,24.5 Z M 634.5,33.5 C 639.179,33.3342 643.845,33.5008 648.5,34C 651.715,38.351 650.715,41.351 645.5,43C 642.167,43.6667 638.833,43.6667 635.5,43C 633.59,42.5917 632.59,41.4251 632.5,39.5C 632.977,37.4035 633.643,35.4035 634.5,33.5 Z M 632.5,51.5 C 637.599,51.1746 642.599,51.6746 647.5,53C 649.444,57.0348 648.444,60.0348 644.5,62C 639.833,62.6667 635.167,62.6667 630.5,62C 628.811,57.9633 629.478,54.4633 632.5,51.5 Z"/></g>
<g><path style="opacity:0.917" fill="#fff" d="M 684.5,24.5 C 688.767,24.203 692.934,24.5363 697,25.5C 700.611,39.0541 703.778,52.7208 706.5,66.5C 704.213,71.7969 700.713,72.7969 696,69.5C 695.205,67.0988 694.038,64.9321 692.5,63C 686.833,62.3333 681.167,62.3333 675.5,63C 673.257,65.4878 671.257,68.1544 669.5,71C 663.556,72.7199 661.056,70.5533 662,64.5C 669.259,50.9775 676.759,37.6442 684.5,24.5 Z M 688.5,36.5 C 690.199,41.4781 691.532,46.6448 692.5,52C 689.028,53.5799 685.362,53.9133 681.5,53C 681.043,52.586 680.709,52.086 680.5,51.5C 683.434,46.6318 686.1,41.6318 688.5,36.5 Z"/></g>
<g><path style="opacity:0.782" fill="#fff" d="M 283.5,78.5 C 287.182,78.3347 290.848,78.5014 294.5,79C 299.226,81.3883 300.726,85.2216 299,90.5C 296.736,95.6373 292.736,97.9706 287,97.5C 276.171,96.6213 273.505,91.288 279,81.5C 280.652,80.6006 282.152,79.6006 283.5,78.5 Z M 286.5,81.5 C 294.951,81.1694 297.285,84.6694 293.5,92C 289.698,94.8281 285.698,95.1614 281.5,93C 279.085,87.2774 280.752,83.444 286.5,81.5 Z"/></g>
<g><path style="opacity:0.753" fill="#fff" d="M 356.5,78.5 C 357.873,78.3433 359.207,78.51 360.5,79C 363.667,82.8333 366.833,86.6667 370,90.5C 371.369,86.6225 372.202,82.6225 372.5,78.5C 373.833,78.5 375.167,78.5 376.5,78.5C 375.392,84.8149 374.392,91.1482 373.5,97.5C 372.127,97.6567 370.793,97.49 369.5,97C 366.333,93.1667 363.167,89.3333 360,85.5C 358.464,89.3462 357.631,93.3462 357.5,97.5C 356.167,97.5 354.833,97.5 353.5,97.5C 354.392,91.1482 355.392,84.8149 356.5,78.5 Z"/></g>
<g><path style="opacity:0.718" fill="#fff" d="M 432.5,78.5 C 433.833,78.5 435.167,78.5 436.5,78.5C 435.508,83.4516 434.842,88.4516 434.5,93.5C 437.833,93.5 441.167,93.5 444.5,93.5C 444.5,94.8333 444.5,96.1667 444.5,97.5C 439.5,97.5 434.5,97.5 429.5,97.5C 430.392,91.1471 431.392,84.8138 432.5,78.5 Z"/></g>
<g><path style="opacity:0.739" fill="#fff" d="M 501.5,78.5 C 502.833,78.5 504.167,78.5 505.5,78.5C 504.608,84.8529 503.608,91.1862 502.5,97.5C 501.167,97.5 499.833,97.5 498.5,97.5C 499.629,91.1884 500.629,84.855 501.5,78.5 Z"/></g>
<g><path style="opacity:0.756" fill="#fff" d="M 561.5,78.5 C 562.873,78.3433 564.207,78.51 565.5,79C 568.667,82.8333 571.833,86.6667 575,90.5C 576.577,86.7174 577.411,82.7174 577.5,78.5C 578.833,78.5 580.167,78.5 581.5,78.5C 580.608,84.8529 579.608,91.1862 578.5,97.5C 577.127,97.6567 575.793,97.49 574.5,97C 571.212,92.9232 568.045,88.7565 565,84.5C 563.735,88.7543 562.902,93.0876 562.5,97.5C 561.167,97.5 559.833,97.5 558.5,97.5C 559.608,91.1862 560.608,84.8529 561.5,78.5 Z"/></g>
<g><path style="opacity:0.73" fill="#fff" d="M 637.5,78.5 C 643.868,78.1703 650.202,78.5037 656.5,79.5C 656.167,80.1667 655.833,80.8333 655.5,81.5C 650.544,82.4941 645.544,82.8275 640.5,82.5C 640.5,83.8333 640.5,85.1667 640.5,86.5C 644.833,86.5 649.167,86.5 653.5,86.5C 653.5,87.5 653.5,88.5 653.5,89.5C 648.833,89.5 644.167,89.5 639.5,89.5C 639.5,90.8333 639.5,92.1667 639.5,93.5C 644.167,93.5 648.833,93.5 653.5,93.5C 653.5,94.8333 653.5,96.1667 653.5,97.5C 647.167,97.5 640.833,97.5 634.5,97.5C 635.608,91.1862 636.608,84.8529 637.5,78.5 Z"/></g>
<g><path style="opacity:0.947" fill="#fff" d="M 5.5,88.5 C 12.7546,88.1868 19.9213,88.5201 27,89.5C 28.8417,96.6626 28.175,103.663 25,110.5C 19.5678,116.142 13.4011,116.976 6.5,113C 4.1906,110.285 2.85727,107.118 2.5,103.5C 3.39486,98.4607 4.39486,93.4607 5.5,88.5 Z"/></g>
<g><path style="opacity:0.92" fill="#fff" d="M 127.5,88.5 C 134.508,88.3337 141.508,88.5004 148.5,89C 150.516,90.0282 151.516,91.6948 151.5,94C 150.946,96.8236 150.446,99.657 150,102.5C 148.997,112.441 143.497,116.108 133.5,113.5C 129.584,113.483 125.75,113.15 122,112.5C 121.077,110.966 120.577,109.299 120.5,107.5C 121.269,103.155 122.102,98.8213 123,94.5C 123.599,91.7458 125.099,89.7458 127.5,88.5 Z M 131.5,95.5 C 135.167,95.5 138.833,95.5 142.5,95.5C 142.048,98.876 141.382,102.209 140.5,105.5C 136.893,106.489 133.226,106.823 129.5,106.5C 129.911,102.779 130.578,99.1119 131.5,95.5 Z"/></g>
<g><path style="opacity:0.898" fill="#fff" d="M 155.5,88.5 C 158.518,88.3354 161.518,88.502 164.5,89C 167.046,92.59 169.213,96.4234 171,100.5C 171.882,97.2105 172.548,93.8772 173,90.5C 175.481,88.6863 178.315,88.0196 181.5,88.5C 180.491,96.886 179.158,105.219 177.5,113.5C 174.428,113.817 171.428,113.484 168.5,112.5C 166.333,108.833 164.167,105.167 162,101.5C 161,105.167 160,108.833 159,112.5C 156.619,113.435 154.119,113.768 151.5,113.5C 152.081,105.013 153.415,96.6792 155.5,88.5 Z"/></g>
</svg>
